<svg width="40" height="40" viewBox="0 0 40 40" fill="none" xmlns="http://www.w3.org/2000/svg">
<rect width="40" height="40" rx="20" fill="#01ADEF"/>
<path fill-rule="evenodd" clip-rule="evenodd" d="M10.2374 10.2885C9.84442 10.1575 9.41968 10.3699 9.28869 10.7628C9.15771 11.1558 9.37008 11.5805 9.76303 11.7115L10.0279 11.7998C10.7044 12.0253 11.1516 12.1756 11.481 12.3288C11.793 12.4739 11.9278 12.5907 12.0143 12.7106C12.1007 12.8305 12.1688 12.9954 12.2079 13.3373C12.2491 13.6983 12.2502 14.17 12.2502 14.883L12.2502 17.5549C12.2502 18.9225 12.2502 20.0248 12.3667 20.8918C12.4877 21.7919 12.7466 22.5497 13.3486 23.1517C13.9505 23.7536 14.7083 24.0125 15.6085 24.1335C16.4754 24.25 17.5777 24.25 18.9453 24.25H27.0002C27.4144 24.25 27.7502 23.9142 27.7502 23.5C27.7502 23.0858 27.4144 22.75 27.0002 22.75H19.0002C17.5648 22.75 16.5637 22.7484 15.8083 22.6469C15.0745 22.5482 14.686 22.3678 14.4092 22.091C14.3125 21.9943 14.2276 21.884 14.1538 21.75H24.0587C24.507 21.75 24.9014 21.7501 25.2288 21.7147C25.5832 21.6764 25.9266 21.5914 26.2497 21.3784C26.5728 21.1654 26.7862 20.8832 26.961 20.5725C27.1224 20.2855 27.2778 19.923 27.4544 19.5109L27.9212 18.4217C28.3057 17.5247 28.6273 16.7742 28.7883 16.1639C28.9563 15.5271 29 14.8623 28.6038 14.2614C28.2076 13.6605 27.5793 13.4388 26.9278 13.3424C26.3034 13.2499 25.4869 13.25 24.511 13.25L13.707 13.25C13.7042 13.222 13.7013 13.1944 13.6982 13.1671C13.6428 12.6823 13.5222 12.2374 13.2311 11.8336C12.94 11.4297 12.5561 11.1746 12.1137 10.9688C11.6975 10.7751 11.1681 10.5987 10.5418 10.39L10.2374 10.2885ZM13.7502 14.75C13.7502 14.7802 13.7502 14.8107 13.7502 14.8414L13.7502 17.5C13.7502 18.672 13.7513 19.5544 13.8069 20.25H24.022C24.5179 20.25 24.8305 20.249 25.0678 20.2234C25.287 20.1997 25.3713 20.1608 25.424 20.1261C25.4766 20.0914 25.5455 20.0292 25.6537 19.8371C25.7707 19.629 25.8948 19.3421 26.0901 18.8863L26.5187 17.8863C26.9332 16.9191 27.2087 16.2713 27.3379 15.7813C27.4636 15.305 27.3999 15.1605 27.3515 15.0871C27.3032 15.0138 27.1954 14.8983 26.7082 14.8262C26.2068 14.752 25.5029 14.75 24.4506 14.75H13.7502Z" fill="white"/>
<path fill-rule="evenodd" clip-rule="evenodd" d="M13.2502 27.5C13.2502 28.7426 14.2576 29.75 15.5002 29.75C16.7428 29.75 17.7502 28.7426 17.7502 27.5C17.7502 26.2574 16.7428 25.25 15.5002 25.25C14.2576 25.25 13.2502 26.2574 13.2502 27.5ZM15.5002 28.25C15.086 28.25 14.7502 27.9142 14.7502 27.5C14.7502 27.0858 15.086 26.75 15.5002 26.75C15.9144 26.75 16.2502 27.0858 16.2502 27.5C16.2502 27.9142 15.9144 28.25 15.5002 28.25Z" fill="white"/>
<path fill-rule="evenodd" clip-rule="evenodd" d="M24.5002 29.7501C23.2576 29.7501 22.2502 28.7427 22.2502 27.5001C22.2502 26.2574 23.2576 25.2501 24.5002 25.2501C25.7428 25.2501 26.7502 26.2574 26.7502 27.5001C26.7502 28.7427 25.7428 29.7501 24.5002 29.7501ZM23.7502 27.5001C23.7502 27.9143 24.086 28.2501 24.5002 28.2501C24.9144 28.2501 25.2502 27.9143 25.2502 27.5001C25.2502 27.0859 24.9144 26.7501 24.5002 26.7501C24.086 26.7501 23.7502 27.0859 23.7502 27.5001Z" fill="white"/>
</svg>
