<svg width="40" height="40" viewBox="0 0 40 40" fill="none" xmlns="http://www.w3.org/2000/svg">
<rect width="40" height="40" rx="20" fill="#01ADEF"/>
<path fill-rule="evenodd" clip-rule="evenodd" d="M13.6244 12.4242C11.9654 13.1825 10.75 14.9862 10.75 17.1371C10.75 19.3345 11.6492 21.0282 12.9383 22.4798C14.0007 23.6761 15.2868 24.6676 16.5411 25.6346C16.839 25.8643 17.1351 26.0926 17.426 26.3219C17.9521 26.7366 18.4213 27.1005 18.8736 27.3648C19.3261 27.6293 19.6904 27.75 20 27.75C20.3096 27.75 20.6739 27.6293 21.1264 27.3648C21.5787 27.1005 22.0479 26.7366 22.574 26.3219C22.8649 26.0926 23.161 25.8643 23.4589 25.6346C24.7132 24.6676 25.9993 23.6761 27.0617 22.4798C28.3508 21.0282 29.25 19.3345 29.25 17.1371C29.25 14.9862 28.0346 13.1825 26.3756 12.4242C24.7639 11.6875 22.5983 11.8826 20.5404 14.0207C20.399 14.1676 20.2039 14.2506 20 14.2506C19.7961 14.2506 19.601 14.1676 19.4596 14.0207C17.4017 11.8826 15.2361 11.6875 13.6244 12.4242ZM20 12.4588C17.6879 10.3902 15.099 10.1009 13.0008 11.06C10.7847 12.0729 9.25 14.425 9.25 17.1371C9.25 19.8026 10.3605 21.8361 11.8167 23.4758C12.9829 24.7889 14.4102 25.888 15.6708 26.8586C15.9566 27.0786 16.2338 27.292 16.4974 27.4999C17.0097 27.9037 17.5595 28.3343 18.1168 28.6599C18.6739 28.9854 19.3096 29.25 20 29.25C20.6904 29.25 21.3261 28.9854 21.8832 28.6599C22.4405 28.3343 22.9903 27.9037 23.5026 27.4999C23.7662 27.292 24.0434 27.0786 24.3292 26.8586C25.5898 25.888 27.0171 24.7889 28.1833 23.4758C29.6395 21.8361 30.75 19.8026 30.75 17.1371C30.75 14.425 29.2153 12.0729 26.9992 11.06C24.901 10.1009 22.3121 10.3902 20 12.4588Z" fill="white"/>
</svg>
