<svg width="40" height="40" viewBox="0 0 40 40" fill="none" xmlns="http://www.w3.org/2000/svg">
<rect width="40" height="40" rx="20" fill="#01ADEF"/>
<path d="M19.25 26C19.25 26.4142 19.5858 26.75 20 26.75C20.4142 26.75 20.75 26.4142 20.75 26V23C20.75 22.5858 20.4142 22.25 20 22.25C19.5858 22.25 19.25 22.5858 19.25 23V26Z" fill="white"/>
<path fill-rule="evenodd" clip-rule="evenodd" d="M20 9.25C19.2919 9.25 18.6485 9.45282 17.9506 9.79224C17.2758 10.1203 16.4964 10.6041 15.5229 11.2083L13.4563 12.4909C12.5351 13.0626 11.7974 13.5204 11.2289 13.9558C10.6401 14.4067 10.1879 14.8659 9.86131 15.4626C9.53535 16.0581 9.38857 16.6917 9.31819 17.4407C9.24999 18.1665 9.24999 19.0541 9.25 20.1672V21.7799C9.24999 23.6837 9.24998 25.1866 9.4027 26.3616C9.55937 27.567 9.88856 28.5401 10.6324 29.3094C11.3796 30.0824 12.3305 30.4277 13.5076 30.5914C14.6485 30.75 16.1056 30.75 17.9418 30.75H22.0581C23.8944 30.75 25.3515 30.75 26.4924 30.5914C27.6695 30.4277 28.6204 30.0824 29.3676 29.3094C30.1114 28.5401 30.4406 27.567 30.5973 26.3616C30.75 25.1866 30.75 23.6838 30.75 21.7799V20.1672C30.75 19.0541 30.75 18.1665 30.6818 17.4407C30.6114 16.6917 30.4646 16.0581 30.1387 15.4626C29.8121 14.8659 29.3599 14.4067 28.7711 13.9558C28.2026 13.5204 27.4649 13.0626 26.5437 12.4909L24.4771 11.2083C23.5036 10.6041 22.7241 10.1203 22.0494 9.79224C21.3515 9.45282 20.7081 9.25 20 9.25ZM16.2795 12.5041C17.2953 11.8737 18.0095 11.4315 18.6065 11.1412C19.1882 10.8583 19.6002 10.75 20 10.75C20.3998 10.75 20.8118 10.8583 21.3935 11.1412C21.9905 11.4315 22.7047 11.8737 23.7205 12.5041L25.7205 13.7454C26.6813 14.3417 27.3559 14.7613 27.8591 15.1467C28.3487 15.5216 28.6303 15.8311 28.8229 16.1829C29.0162 16.5359 29.129 16.9487 29.1884 17.581C29.2492 18.2286 29.25 19.0458 29.25 20.2039V21.725C29.25 23.6959 29.2485 25.1012 29.1098 26.1683C28.9736 27.2163 28.717 27.8244 28.2892 28.2669C27.8649 28.7058 27.2871 28.9664 26.2858 29.1057C25.2602 29.2483 23.9075 29.25 22 29.25H18C16.0925 29.25 14.7398 29.2483 13.7142 29.1057C12.7129 28.9664 12.1351 28.7058 11.7108 28.2669C11.283 27.8244 11.0264 27.2163 10.8902 26.1683C10.7515 25.1012 10.75 23.6959 10.75 21.725V20.2039C10.75 19.0458 10.7508 18.2286 10.8116 17.581C10.871 16.9487 10.9838 16.5359 11.1771 16.1829C11.3697 15.8311 11.6513 15.5216 12.1409 15.1467C12.6441 14.7613 13.3187 14.3417 14.2795 13.7454L16.2795 12.5041Z" fill="white"/>
</svg>
